<svg width="210mm" height="210mm" version="1.1" viewBox="0 0 210 210" xmlns="http://www.w3.org/2000/svg" xmlns:xlink="http://www.w3.org/1999/xlink">
 <defs>
  <linearGradient id="linearGradient1000" x2="210" y2="210" gradientUnits="userSpaceOnUse">
   <stop stop-color="#333" offset="0"/>
   <stop stop-color="#333" stop-opacity="0" offset="1"/>
  </linearGradient>
 </defs>
 <g>
  <rect width="210" height="210" fill="url(#linearGradient1000)" stroke-width=".274699"/>
  <title>Fill-4</title>
  <desc>Created with Sketch.</desc>
  <g transform="matrix(2.5048535,0,0,2.5048535,27.680731,27.68073)" fill="none" fill-rule="evenodd">
   <g id="status-on-dark" fill="#cc80ff" fill-rule="nonzero">
    <path d="m51.722298 29.900039c2.058387-2.037096 5.463225-5.410967 7.453225-7.4 0.378065-0.378064 0.378065-0.990967 3.23e-4 -1.369032-0.378065-0.377742-0.990323-0.377419-1.36871-3.22e-4 -2.567742 2.567097-7.503871 7.451613-8.836451 8.769354h-15.766775l10.784839-10.784838c0.525807 0.0065 1.052258 0.01 1.57871 0.01 1.296774 0 2.590968-0.01613 3.854516-0.03226 2.420968-0.03032 4.925161-0.06129 7.424194 0.02097 0.54129 0.01323 0.981612-0.400645 0.999677-0.934838 0.01774-0.534194-0.400968-0.981613-0.935484-0.999355-2.543548-0.08452-5.069355-0.0529-7.512903-0.02194-1.142581 0.01419-2.31 0.02452-3.47871 0.02742l6.162258-6.162258c0.378065-0.37742 0.378065-0.990645 0-1.3683873-0.377742-0.3780646-0.990967-0.3780646-1.368387 0l-5.836451 5.8364513c0.01484-2.915161 0.03548-7.5383868 0.03613-10.2777417 3.22e-4 -0.5345161-0.433226-0.9677419-0.96742-0.9680645-0.534516 0-0.967742 0.4332258-0.968064 0.9677419-6.45e-4 3.4980646-0.03452 10.0709673-0.04613 12.2235483l-11.095162 11.095164v-15.445161c1.162259-1.174839 6.23-6.2974192 8.862258-8.930645 0.378065-0.3780645 0.378065-0.9906452 0-1.3683871-0.378387-0.3783871-0.99129-0.3777419-1.369032 0-2.019677 2.0206451-5.467097 5.5003226-7.493226 7.5470971v-8.4990326c0-0.5345161-0.433225-0.96774194-0.967742-0.96774194-0.534193 0-0.967742 0.43322584-0.967742 0.96774194v8.4535486c-0.738709-0.7451615-1.471935-1.4919357-2.188064-2.2264518-1.706129-1.7496774-3.470323-3.5587097-5.32871-5.2974194-0.39-0.3651613-1.002258-0.3454838-1.367742 0.045161-0.365161 0.3903226-0.344838 1.0025807 0.04548 1.3680645 1.825807 1.7087097 3.574194 3.5012904 5.265162 5.2351613 1.16 1.1893554 2.358387 2.4129034 3.57387 3.6061294v15.511935l-10.52129-10.52129c-0.0052-0.94129-0.04935-8.8654841-0.04968-12.833226-3.23e-4 -0.5341936-0.433226-0.9677419-0.968065-0.9674194-0.534193 0-0.967742 0.4335484-0.967419 0.967742 3.22e-4 2.9396774 0.02484 8.0470974 0.03936 10.8867744l-6.41-6.4096776c-0.37742-0.3780646-0.990645-0.3780646-1.3683873 0-0.3780646 0.3777426-0.3780646 0.9909676 0 1.3683876l6.1254843 6.125484c-0.965162-0.0052-1.927097-0.01419-2.871613-0.02613-2.443549-0.03097-4.9696778-0.0629-7.5129036 0.02193-0.5341936 0.01774-0.9529032 0.464839-0.9351613 0.999355 0.017742 0.534193 0.4622581 0.953226 0.9993548 0.934839 2.4987097-0.08258 5.0029031-0.05129 7.4245161-0.02097 1.263549 0.01581 2.557419 0.03193 3.854194 0.03193 0.325483 0 0.650967-0.0035 0.976774-0.0058l10.816451 10.816451h-15.24c-1.33258-1.317741-6.2687092-6.202257-8.8364512-8.769354-0.3780645-0.377097-0.9906451-0.37742-1.3683871 3.22e-4 -0.3780645 0.378065-0.3780645 0.990968 0 1.369032 1.99 1.989033 5.3948387 5.362904 7.4529033 7.4h-8.7041916c-0.5341936 0-0.96774194 0.433226-0.96774194 0.967742 0 0.534517 0.43354834 0.967742 0.96774194 0.967742h8.8461286c-0.7761286 0.770968-1.5554834 1.535807-2.3216125 2.282904-1.7487097 1.705483-3.5574193 3.469354-5.2954838 5.326774-0.3651613 0.390322-0.3451613 1.00258 0.045161 1.367742 0.1867741 0.174516 0.4241935 0.26129 0.6612903 0.26129 0.2583871 0 0.516129-0.103226 0.7064516-0.306774 1.7080645-1.825161 3.5006451-3.572903 5.233871-5.263226 1.2203224-1.19 2.4774194-2.420322 3.7003224-3.66871h15.12l-11.31 11.31c-1.660645-0.01322-3.328709 0.0052-4.947741 0.02613-2.4212911 0.02968-4.9254847 0.06097-7.4241943-0.02129-0.5345162-0.01258-0.981613 0.400645-0.9996775 0.935161-0.017742 0.534194 0.4009678 0.981613 0.9354839 0.999033 2.5429032 0.08452 5.0690323 0.05258 7.5129039 0.02226 0.982258-0.01226 1.983871-0.02161 2.988064-0.02613l-5.6319353 5.63194c-0.3780646 0.37742-0.3780646 0.990645 0 1.368387 0.1890322 0.189033 0.4367743 0.283549 0.6841933 0.283549 0.247742 0 0.495484-0.09452 0.684194-0.283549l5.799032-5.799032c-0.01452 2.860645-0.03806 7.869677-0.03839 10.769355-3.23e-4 0.534516 0.433226 0.968064 0.967419 0.968064 0.534516 0 0.967742-0.433225 0.968065-0.967419 6.45e-4 -3.834516 0.04161-11.364194 0.04871-12.715806l11.13226-11.132259v15.511936c-1.216129 1.194194-2.415161 2.418064-3.575806 3.608064-1.690323 1.733226-3.438064 3.525162-5.263226 5.233226-0.390322 0.365162-0.410645 0.977742-0.04548 1.368065 0.190646 0.203226 0.448387 0.306451 0.706775 0.306451 0.237096 0 0.474516-0.08677 0.660967-0.26129 1.857742-1.738387 3.621291-3.546452 5.326774-5.295161 0.717097-0.735162 1.450968-1.482903 2.19-2.228387v8.453225c0 0.534517 0.433549 0.967742 0.967742 0.967742 0.534517 0 0.967742-0.433225 0.967742-0.967742v-8.499032c2.026129 2.047097 5.473549 5.526129 7.493226 7.547097 0.378065 0.377742 0.990645 0.378065 1.369032 3.23e-4 0.378065-0.378065 0.378065-0.990645 0-1.36871-2.632258-2.632903-7.699999-7.755484-8.862258-8.930323v-15.445484l10.900323 10.900323c0.0084 1.502581 0.04806 8.874839 0.04871 12.654516 3.22e-4 0.534516 0.433548 0.967742 0.968064 0.967742s0.967742-0.433548 0.967419-0.967742c-3.22e-4 -2.879355-0.02355-7.837742-0.03806-10.70871l6.030645 6.030968c0.18871 0.189033 0.436452 0.283549 0.684194 0.283549 0.247419 0 0.495484-0.09452 0.684193-0.283549 0.378065-0.377742 0.378065-0.990967 0-1.368387l-5.924838-5.925161c1.024516 0.0048 2.046774 0.01387 3.049354 0.02645 2.443226 0.03097 4.969033 0.0629 7.512904-0.02193 0.534193-0.01774 0.952903-0.464839 0.935161-0.999355-0.01807-0.534193-0.458065-0.946451-0.999677-0.934838-2.499033 0.08226-5.002904 0.05097-7.424194 0.02097-1.638387-0.02065-3.327097-0.03968-5.008065-0.02548l-11.01775-11.017753h15.646775c1.222903 1.248388 2.480322 2.47871 3.700322 3.66871 1.733549 1.690323 3.525484 3.438065 5.233549 5.263226 0.190645 0.203548 0.448387 0.306774 0.707096 0.306774 0.236775 0 0.474194-0.08677 0.660968-0.26129 0.390323-0.365162 0.410645-0.97742 0.04516-1.367742-1.738064-1.85742-3.546451-3.621291-5.295483-5.326774-0.766129-0.747097-1.545484-1.511936-2.321613-2.282904h8.319354c0.534517 0 0.967742-0.433225 0.967742-0.967742 0-0.534516-0.433225-0.967742-0.967742-0.967742z"/>
   </g>
  </g>
 </g>
</svg>
